# xmcd CD database file
# Copyright (C) 1993-1998 Ti Kan
#
# Track frame offsets:
#	60297
#	75205
#	85772
#	102457
#	113815
#	127087
#	145605
#	161050
#	173817
#	184190
#	203995
#	213880
#	221352
#	233065
#
# Disc length: 3449 seconds
#
# Revision: 1
# Processed by: cddbd v1.4b41PL1 Copyright (c) Steve Scherf et al.
# Submitted via: NotifyCDPlayer(CDDB) 1.51.2
#
DISCID=c20a560e
DTITLE=Wayne Hancock - Thunderstorms and Neon Signs
DYEAR=1900
DGENRE=
TTITLE0=Juke Joint Jumping
TTITLE1=Poor Boy Blues
TTITLE2=Thunderstorms and Neon Signs
TTITLE3=She's My Baby
TTITLE4=Big City Good Time Gal
TTITLE5=Ain't Nobody's Blues But My Own
TTITLE6=Double A Daddy
TTITLE7=Why Don't You Leave Me Alone
TTITLE8=Tag Along
TTITLE9=Cold Lonesome Wind
TTITLE10=Locomotive Joe
TTITLE11=No Loving Tonight
TTITLE12=Friday and Saturday Night
TTITLE13=Summertime
EXTD=
EXTT0=
EXTT1=
EXTT2=
EXTT3=
EXTT4=
EXTT5=
EXTT6=
EXTT7=
EXTT8=
EXTT9=
EXTT10=
EXTT11=
EXTT12=
EXTT13=
PLAYORDER=
